<svg width="288" height="32" viewBox="0 0 288 32" fill="none" xmlns="http://www.w3.org/2000/svg">
<path d="M31.5239 6.58244C30.4106 7.07578 29.2146 7.40911 27.9573 7.55978C29.2546 6.7835 30.2252 5.56173 30.6879 4.12244C29.4691 4.84643 28.1351 5.35604 26.7439 5.62911C25.8084 4.63026 24.5693 3.96821 23.219 3.74574C21.8687 3.52327 20.4827 3.75283 19.2763 4.39878C18.0698 5.04473 17.1103 6.07093 16.5468 7.31805C15.9833 8.56517 15.8473 9.96344 16.1599 11.2958C13.6902 11.1718 11.2741 10.5298 9.0685 9.41165C6.8629 8.29346 4.91706 6.72399 3.35727 4.80511C2.82393 5.72511 2.51727 6.79178 2.51727 7.92778C2.51667 8.95044 2.76851 9.95743 3.25044 10.8594C3.73237 11.7614 4.42948 12.5305 5.27993 13.0984C4.29364 13.0671 3.3291 12.8006 2.4666 12.3211V12.4011C2.4665 13.8354 2.96264 15.2256 3.87084 16.3358C4.77905 17.4459 6.04336 18.2077 7.44927 18.4918C6.53431 18.7394 5.57505 18.7759 4.64393 18.5984C5.0406 19.8326 5.81326 20.9118 6.85376 21.685C7.89425 22.4582 9.15049 22.8867 10.4466 22.9104C8.24638 24.6377 5.52912 25.5746 2.73193 25.5704C2.23644 25.5706 1.74137 25.5416 1.24927 25.4838C4.08857 27.3093 7.39372 28.2782 10.7693 28.2744C22.1959 28.2744 28.4426 18.8104 28.4426 10.6024C28.4426 10.3358 28.4359 10.0664 28.4239 9.79978C29.639 8.92108 30.6878 7.83297 31.5213 6.58644L31.5239 6.58244Z" fill="white"/>
<path d="M64 2.292C64 1.026 65.052 0 66.35 0H93.65C94.948 0 96 1.026 96 2.292V29.708C96 30.974 94.948 32 93.65 32H66.35C65.052 32 64 30.974 64 29.708V2.292ZM73.886 26.788V12.338H69.084V26.788H73.886ZM71.486 10.364C73.16 10.364 74.202 9.256 74.202 7.868C74.172 6.45 73.162 5.372 71.518 5.372C69.874 5.372 68.8 6.452 68.8 7.868C68.8 9.256 69.842 10.364 71.454 10.364H71.486ZM81.302 26.788V18.718C81.302 18.286 81.334 17.854 81.462 17.546C81.808 16.684 82.598 15.79 83.926 15.79C85.664 15.79 86.358 17.114 86.358 19.058V26.788H91.16V18.5C91.16 14.06 88.792 11.996 85.632 11.996C83.084 11.996 81.942 13.396 81.302 14.382V14.432H81.27C81.2806 14.4153 81.2913 14.3986 81.302 14.382V12.338H76.502C76.562 13.694 76.502 26.788 76.502 26.788H81.302Z" fill="white"/>
<path fill-rule="evenodd" clip-rule="evenodd" d="M128 16.0893C128 24.044 133.777 30.6587 141.333 32V20.444H137.333V16H141.333V12.444C141.333 8.444 143.911 6.22267 147.556 6.22267C148.711 6.22267 149.956 6.4 151.111 6.57733V10.6667H149.067C147.111 10.6667 146.667 11.644 146.667 12.8893V16H150.933L150.223 20.444H146.667V32C154.223 30.6587 160 24.0453 160 16.0893C160 7.24 152.8 0 144 0C135.2 0 128 7.24 128 16.0893Z" fill="white"/>
<path d="M208 0C203.658 0 203.112 0.02 201.406 0.096C199.7 0.176 198.538 0.444 197.52 0.84C196.452 1.24164 195.485 1.87165 194.686 2.686C193.872 3.48539 193.242 4.45248 192.84 5.52C192.444 6.536 192.174 7.7 192.096 9.4C192.02 11.11 192 11.654 192 16.002C192 20.346 192.02 20.89 192.096 22.596C192.176 24.3 192.444 25.462 192.84 26.48C193.25 27.532 193.796 28.424 194.686 29.314C195.574 30.204 196.466 30.752 197.518 31.16C198.538 31.556 199.698 31.826 201.402 31.904C203.11 31.98 203.654 32 208 32C212.346 32 212.888 31.98 214.596 31.904C216.298 31.824 217.464 31.556 218.482 31.16C219.549 30.7582 220.516 30.1282 221.314 29.314C222.204 28.424 222.75 27.532 223.16 26.48C223.554 25.462 223.824 24.3 223.904 22.596C223.98 20.89 224 20.346 224 16C224 11.654 223.98 11.11 223.904 9.402C223.824 7.7 223.554 6.536 223.16 5.52C222.758 4.45245 222.128 3.48535 221.314 2.686C220.515 1.87135 219.548 1.24129 218.48 0.84C217.46 0.444 216.296 0.174 214.594 0.096C212.886 0.02 212.344 0 207.996 0H208.002H208ZM206.566 2.884H208.002C212.274 2.884 212.78 2.898 214.466 2.976C216.026 3.046 216.874 3.308 217.438 3.526C218.184 3.816 218.718 4.164 219.278 4.724C219.838 5.284 220.184 5.816 220.474 6.564C220.694 7.126 220.954 7.974 221.024 9.534C221.102 11.22 221.118 11.726 221.118 15.996C221.118 20.266 221.102 20.774 221.024 22.46C220.954 24.02 220.692 24.866 220.474 25.43C220.217 26.1247 219.808 26.7529 219.276 27.268C218.716 27.828 218.184 28.174 217.436 28.464C216.876 28.684 216.028 28.944 214.466 29.016C212.78 29.092 212.274 29.11 208.002 29.11C203.73 29.11 203.222 29.092 201.536 29.016C199.976 28.944 199.13 28.684 198.566 28.464C197.871 28.2078 197.242 27.7992 196.726 27.268C196.194 26.7521 195.783 26.1233 195.526 25.428C195.308 24.866 195.046 24.018 194.976 22.458C194.9 20.772 194.884 20.266 194.884 15.992C194.884 11.72 194.9 11.216 194.976 9.53C195.048 7.97 195.308 7.122 195.528 6.558C195.818 5.812 196.166 5.278 196.726 4.718C197.286 4.158 197.818 3.812 198.566 3.522C199.13 3.302 199.976 3.042 201.536 2.97C203.012 2.902 203.584 2.882 206.566 2.88V2.884ZM216.542 5.54C216.29 5.54 216.04 5.58966 215.807 5.68615C215.574 5.78264 215.363 5.92407 215.184 6.10236C215.006 6.28064 214.865 6.4923 214.768 6.72525C214.672 6.95819 214.622 7.20786 214.622 7.46C214.622 7.71214 214.672 7.96181 214.768 8.19475C214.865 8.4277 215.006 8.63936 215.184 8.81765C215.363 8.99593 215.574 9.13736 215.807 9.23385C216.04 9.33034 216.29 9.38 216.542 9.38C217.051 9.38 217.54 9.17772 217.9 8.81765C218.26 8.45757 218.462 7.96922 218.462 7.46C218.462 6.95078 218.26 6.46242 217.9 6.10236C217.54 5.74229 217.051 5.54 216.542 5.54ZM208.002 7.784C206.912 7.767 205.83 7.96697 204.818 8.37228C203.806 8.77759 202.885 9.38014 202.108 10.1448C201.332 10.9096 200.715 11.8211 200.294 12.8265C199.873 13.8319 199.656 14.911 199.656 16.001C199.656 17.091 199.873 18.1701 200.294 19.1755C200.715 20.1809 201.332 21.0924 202.108 21.8572C202.885 22.6219 203.806 23.2244 204.818 23.6297C205.83 24.035 206.912 24.235 208.002 24.218C210.159 24.1843 212.216 23.3038 213.73 21.7665C215.243 20.2292 216.092 18.1583 216.092 16.001C216.092 13.8437 215.243 11.7728 213.73 10.2355C212.216 8.69817 210.159 7.81765 208.002 7.784ZM208.002 10.666C209.417 10.666 210.773 11.228 211.774 12.2283C212.774 13.2286 213.336 14.5853 213.336 16C213.336 17.4147 212.774 18.7714 211.774 19.7717C210.773 20.772 209.417 21.334 208.002 21.334C206.587 21.334 205.231 20.772 204.23 19.7717C203.23 18.7714 202.668 17.4147 202.668 16C202.668 14.5853 203.23 13.2286 204.23 12.2283C205.231 11.228 206.587 10.666 208.002 10.666Z" fill="white"/>
<path d="M268.915 14.8814C268.915 14.8814 271.942 14.6462 271.942 10.947C271.942 7.24301 269.466 5.44141 266.326 5.44141H256V26.123H266.326C266.326 26.123 272.632 26.3294 272.632 20.0174C272.63 20.0158 272.906 14.8814 268.915 14.8814ZM260.55 9.11501H266.326C266.326 9.11501 267.731 9.11501 267.731 11.2654C267.731 13.419 266.906 13.731 265.968 13.731H260.55V9.11501ZM266.034 22.4462H260.55V16.9182H266.326C266.326 16.9182 268.419 16.8894 268.419 19.7582C268.419 22.1774 266.856 22.4286 266.034 22.4462ZM281.038 10.7006C273.405 10.7006 273.411 18.6478 273.411 18.6478C273.411 18.6478 272.89 26.5534 281.038 26.5534C281.038 26.5534 287.827 26.9598 287.827 21.0542H284.336C284.336 21.0542 284.451 23.2798 281.155 23.2798C281.155 23.2798 277.661 23.523 277.661 19.6798H287.938C287.939 19.6782 289.072 10.7006 281.038 10.7006ZM284.144 16.9182H277.626C277.626 16.9182 278.051 13.731 281.117 13.731C284.182 13.731 284.144 16.9182 284.144 16.9182ZM284.955 6.65581H276.768V9.20621H284.955V6.65581Z" fill="white"/>
</svg>
