<svg width="41" height="41" viewBox="0 0 41 41" fill="none" xmlns="http://www.w3.org/2000/svg">
<path d="M20.332 21.8467C23.0935 21.8467 25.332 19.6081 25.332 16.8467C25.332 14.0853 23.0935 11.8467 20.332 11.8467C17.5706 11.8467 15.332 14.0853 15.332 16.8467C15.332 19.6081 17.5706 21.8467 20.332 21.8467Z" stroke="#383838" stroke-width="3" stroke-linecap="round" stroke-linejoin="round"/>
<path d="M20.3319 3.51318C16.7956 3.51318 13.4043 4.91794 10.9038 7.41843C8.40329 9.91891 6.99854 13.3103 6.99854 16.8465C6.99854 19.9998 7.66854 22.0632 9.49854 24.3465L20.3319 36.8465L31.1652 24.3465C32.9952 22.0632 33.6652 19.9998 33.6652 16.8465C33.6652 13.3103 32.2604 9.91891 29.76 7.41843C27.2595 4.91794 23.8681 3.51318 20.3319 3.51318V3.51318Z" stroke="#383838" stroke-width="3" stroke-linecap="round" stroke-linejoin="round"/>
</svg>
