<svg width="41" height="41" viewBox="0 0 41 41" fill="none" xmlns="http://www.w3.org/2000/svg">
<path d="M5.33203 15.2747V27.6797C5.33203 29.0058 5.85882 30.2775 6.7965 31.2152C7.73418 32.1529 9.00595 32.6797 10.332 32.6797H30.332C31.6581 32.6797 32.9299 32.1529 33.8676 31.2152C34.8052 30.2775 35.332 29.0058 35.332 27.6797V12.6797C35.332 11.3536 34.8052 10.0818 33.8676 9.14415C32.9299 8.20647 31.6581 7.67969 30.332 7.67969H10.332C9.00595 7.67969 7.73418 8.20647 6.7965 9.14415C5.85882 10.0818 5.33203 11.3536 5.33203 12.6797V15.2747ZM10.332 10.1797H30.332C30.9951 10.1797 31.631 10.4431 32.0998 10.9119C32.5686 11.3808 32.832 12.0166 32.832 12.6797V14.5297L20.332 21.2597L7.83203 14.5297V12.6797C7.83203 12.0166 8.09542 11.3808 8.56426 10.9119C9.03311 10.4431 9.66899 10.1797 10.332 10.1797ZM7.83203 17.3697L19.7395 23.7797C19.9216 23.8777 20.1252 23.929 20.332 23.929C20.5388 23.929 20.7424 23.8777 20.9245 23.7797L32.832 17.3697V27.6797C32.832 28.3427 32.5686 28.9786 32.0998 29.4475C31.631 29.9163 30.9951 30.1797 30.332 30.1797H10.332C9.66899 30.1797 9.03311 29.9163 8.56426 29.4475C8.09542 28.9786 7.83203 28.3427 7.83203 27.6797V17.3697Z" fill="#383838"/>
</svg>
