<svg width="31" height="31" viewBox="0 0 31 31" fill="none" xmlns="http://www.w3.org/2000/svg">
<path d="M27.3821 20.613L23.1488 20.1296C22.651 20.0712 22.1464 20.1263 21.673 20.2908C21.1996 20.4554 20.7696 20.725 20.4154 21.0796L17.3488 24.1463C12.6174 21.74 8.77173 17.8943 6.36543 13.163L9.44877 10.0796C10.1654 9.36296 10.5154 8.36296 10.3988 7.34629L9.91543 3.14629C9.82094 2.33325 9.43075 1.58335 8.81916 1.03937C8.20756 0.495389 7.41728 0.195319 6.59877 0.196291H3.71543C1.8321 0.196291 0.265432 1.76296 0.382099 3.64629C1.26543 17.8796 12.6488 29.2463 26.8654 30.1296C28.7488 30.2463 30.3154 28.6796 30.3154 26.7963V23.913C30.3321 22.2296 29.0654 20.813 27.3821 20.613Z" fill="#383838"/>
</svg>
