<svg width="269" height="46" viewBox="0 0 269 46" fill="none" xmlns="http://www.w3.org/2000/svg">
<path d="M0.125 3.5H7.73C18.62 5.975 25.55 21.635 19.79 29.915C19.565 29.735 19.385 29.6 19.205 29.42C18.665 28.925 17.99 28.205 17.54 27.62C17.315 27.35 16.73 26.495 16.595 26.27L16.55 26.18L16.73 26.045C17.225 25.64 17.63 25.19 17.945 24.695C18.44 23.84 18.575 23.165 18.26 22.715C18.125 22.49 17.9 22.4 17.405 22.445C17.18 22.49 17.09 22.49 16.82 22.445C16.46 22.355 16.28 22.4 15.92 22.535C15.74 22.625 15.605 22.67 15.335 22.715C14.66 22.85 14.3 22.985 14.03 23.12C13.85 23.255 13.805 23.345 13.715 23.57C13.67 23.66 13.58 23.84 13.49 23.93C13.355 24.11 13.31 24.245 13.265 24.38C13.265 24.47 13.265 24.47 13.13 24.515C12.95 24.605 12.725 24.785 12.635 24.965C12.59 25.055 12.5 25.19 12.5 25.235C12.455 25.37 12.455 26.135 12.455 26.27C12.5 26.405 12.635 26.63 12.77 26.72C13.31 27.08 14.21 27.17 15.02 26.9C15.38 26.765 15.83 26.585 16.235 26.405L16.37 26.315L16.64 26.72C17.36 27.755 17.765 28.25 18.485 29.015C18.845 29.375 19.205 29.735 19.655 30.095C17.495 33.065 13.67 35 7.73 35H0.125V3.5ZM5.48 5.885C5.21 5.885 4.985 5.93 4.85 6.065C4.49 6.38 4.58 6.92 5.075 7.37C5.3 7.55 5.66 7.775 5.975 7.865C6.425 8 7.145 8 7.595 7.91H7.685L7.775 8.045C8.09 8.45 8.18 8.63 8.18 8.63C8.18 8.63 8.09 8.63 7.955 8.585C7.325 8.36 6.605 8.27 6.065 8.36C5.48 8.495 4.985 8.9 5.03 9.26C5.075 9.35 5.075 9.395 5.165 9.53C5.3 9.665 5.3 9.665 5.48 9.755C6.02 10.07 6.695 10.07 7.505 9.71C7.865 9.53 8.09 9.395 8.315 9.26L8.495 9.125L9.035 9.755C9.305 10.07 9.53 10.385 9.53 10.385C9.53 10.385 9.485 10.385 9.35 10.34C8.54 10.115 7.91 10.16 7.235 10.475C7.1 10.565 6.785 10.835 6.695 10.97C6.56 11.105 6.515 11.33 6.47 11.465C6.47 11.735 6.605 12.005 6.875 12.14C7.235 12.275 7.775 12.23 8.495 11.96C9.035 11.78 9.35 11.555 9.71 11.195C9.8 11.105 9.89 10.97 9.935 10.925C9.98 10.835 9.98 10.835 10.07 10.97C10.16 11.06 10.61 11.51 10.88 11.78C11.015 11.915 11.105 12.005 11.105 12.005C11.105 12.05 11.06 12.005 10.97 12.005C10.7 11.96 10.295 11.915 10.025 11.96C9.755 12.005 9.485 12.095 9.26 12.185C9.125 12.23 9.08 12.275 8.855 12.455C8.675 12.635 8.63 12.68 8.585 12.77C8.45 12.995 8.405 13.22 8.45 13.49C8.495 13.67 8.675 13.895 8.855 13.985C9.08 14.12 9.395 14.165 9.71 14.075C10.115 13.985 10.475 13.805 10.97 13.4C11.33 13.085 11.51 12.905 11.69 12.68C11.735 12.59 11.735 12.545 11.78 12.545C11.78 12.545 12.77 13.31 12.86 13.4C12.905 13.445 12.95 13.445 12.95 13.445C12.905 13.49 12.815 13.49 12.725 13.445C12.14 13.445 11.51 13.535 11.015 13.76C10.79 13.895 10.43 14.12 10.25 14.345C9.89 14.84 10.025 15.335 10.655 15.605C11.15 15.83 11.87 15.65 12.545 15.065C12.68 14.975 12.815 14.84 12.86 14.795C12.995 14.615 13.265 14.21 13.355 14.03C13.4 13.94 13.445 13.85 13.445 13.85C13.49 13.85 14.03 14.345 14.255 14.525C14.345 14.615 14.48 14.75 14.57 14.84C14.615 14.93 14.66 14.975 14.705 14.975C14.75 14.975 14.795 14.93 14.795 14.885C14.795 14.75 14.3 14.3 13.76 13.85C13.67 13.76 13.58 13.715 13.58 13.67C13.58 13.67 13.58 13.625 13.625 13.58C14.3 12.5 14.48 11.285 14.075 10.52C13.94 10.25 13.67 10.07 13.445 10.07C13.085 10.025 12.725 10.475 12.59 11.015C12.455 11.555 12.545 12.32 12.725 12.815C12.86 13.13 12.86 13.085 12.815 13.085C12.77 13.04 11.915 12.41 11.87 12.365C11.87 12.365 11.915 12.275 11.915 12.185C12.005 11.96 12.185 11.465 12.23 11.24C12.455 10.43 12.41 9.98 12.14 9.575C11.915 9.26 11.6 9.215 11.33 9.44C10.835 9.89 10.7 10.655 11.015 11.465C11.06 11.555 11.105 11.69 11.105 11.69C11.15 11.735 10.565 11.15 10.295 10.88L10.16 10.745L10.295 10.61C10.61 10.25 11.015 9.485 11.15 8.99C11.24 8.72 11.24 8.405 11.195 8.18C11.15 8.045 11.15 8 11.06 7.865C10.97 7.775 10.925 7.73 10.835 7.73C10.565 7.595 10.16 7.775 9.935 8.18C9.575 8.765 9.485 9.305 9.62 9.89L9.665 10.16L9.53 10.025C9.35 9.845 8.72 9.08 8.72 9.035C8.72 9.035 8.855 8.945 8.99 8.81C9.395 8.495 9.665 8.18 9.8 7.775C9.98 7.415 10.025 6.92 9.98 6.605C9.845 6.065 9.305 5.795 8.765 6.065C8.45 6.245 8.225 6.605 8.135 7.235C8.09 7.505 8.09 7.73 8.09 7.955C8.135 8.09 8.135 8.135 8.135 8.135C8.09 8.135 7.73 7.64 7.685 7.505C7.64 7.46 7.55 7.28 7.415 7.145C6.875 6.38 6.29 5.975 5.615 5.885C5.57 5.885 5.525 5.885 5.48 5.885ZM7.73 15.92V26.045C11.51 26.225 13.175 15.92 7.73 15.92ZM4.265 22.85C4.22 22.85 4.22 22.85 4.175 22.895C4.04 22.895 3.95 22.94 3.86 22.985C3.725 23.075 3.68 23.12 3.59 23.21L3.545 23.3L3.5 23.255C3.365 23.165 3.14 23.165 2.96 23.21L2.87 23.255L2.78 23.21C2.6 23.165 2.375 23.165 2.195 23.21C2.06 23.3 1.88 23.525 1.835 23.75C1.79 23.93 1.835 24.2 1.88 24.38C1.925 24.515 2.06 24.785 2.195 24.92C2.375 25.28 2.87 25.55 3.275 25.685C3.455 25.73 3.68 25.73 3.86 25.73L3.995 25.685V25.82C4.04 26.18 4.04 26.585 4.04 26.855C3.995 27.35 3.95 28.25 3.905 28.745C3.86 29.105 3.725 29.87 3.725 29.915C3.725 29.915 3.68 29.915 3.68 29.87C3.68 29.87 3.68 29.735 3.68 29.645C3.59 28.925 3.41 28.115 3.23 27.575C2.915 26.63 2.555 26.18 2.06 26.09C1.745 26.045 1.43 26.27 1.295 26.63C1.115 27.215 1.25 27.935 1.745 28.88C2.105 29.51 2.735 30.275 3.32 30.77C3.41 30.86 3.455 30.905 3.455 30.905C3.5 30.95 3.275 31.58 3.095 32.12C2.87 32.705 2.78 33.065 2.78 33.11V33.155C2.825 33.2 2.87 33.2 2.915 33.155C2.915 33.11 3.005 32.885 3.095 32.57C3.23 32.3 3.275 32.075 3.32 32.03C3.32 32.03 3.365 32.03 3.41 31.985C3.59 31.94 4.13 31.76 4.31 31.715C4.805 31.58 5.48 31.175 6.065 30.725C7.055 29.96 7.73 29.195 7.91 28.52C8 28.295 8 28.07 7.91 27.935C7.865 27.845 7.775 27.755 7.685 27.665C7.595 27.665 7.55 27.62 7.37 27.62C7.145 27.62 7.01 27.665 6.74 27.755C6.425 27.89 6.065 28.07 5.795 28.295C5.525 28.52 5.075 28.97 4.805 29.33C4.4 29.825 4.04 30.41 3.68 30.995C3.635 31.085 3.59 31.13 3.59 31.13C3.59 31.13 3.635 30.995 3.68 30.86C3.725 30.59 3.815 30.32 3.86 29.96C3.995 29.51 4.04 28.925 4.13 28.16C4.22 27.125 4.22 26.675 4.175 25.955C4.13 25.82 4.13 25.685 4.13 25.685C4.175 25.685 4.22 25.685 4.265 25.73C4.67 25.865 5.075 25.82 5.57 25.595C5.795 25.46 5.885 25.415 6.065 25.235C6.425 24.875 6.605 24.515 6.605 24.155C6.605 23.84 6.425 23.615 6.2 23.525C6.065 23.435 5.885 23.435 5.75 23.435C5.66 23.48 5.66 23.48 5.615 23.435C5.57 23.39 5.39 23.345 5.3 23.345C5.165 23.3 5.12 23.345 4.985 23.39C4.985 23.39 4.94 23.345 4.895 23.3C4.805 23.03 4.535 22.85 4.265 22.85ZM36.1341 10.43C38.2041 10.43 39.9741 10.88 41.4441 11.78C42.9441 12.68 44.0841 13.955 44.8641 15.605C45.6741 17.225 46.0791 19.13 46.0791 21.32V23.705H29.5641C29.6241 26.435 30.3141 28.52 31.6341 29.96C32.9841 31.37 34.8591 32.075 37.2591 32.075C38.7891 32.075 40.1391 31.94 41.3091 31.67C42.5091 31.37 43.7391 30.95 44.9991 30.41V33.875C43.7691 34.415 42.5541 34.805 41.3541 35.045C40.1541 35.315 38.7291 35.45 37.0791 35.45C34.7991 35.45 32.7741 34.985 31.0041 34.055C29.2641 33.125 27.8991 31.745 26.9091 29.915C25.9491 28.055 25.4691 25.79 25.4691 23.12C25.4691 20.48 25.9041 18.215 26.7741 16.325C27.6741 14.435 28.9191 12.98 30.5091 11.96C32.1291 10.94 34.0041 10.43 36.1341 10.43ZM36.0891 13.67C34.1991 13.67 32.6991 14.285 31.5891 15.515C30.5091 16.715 29.8641 18.395 29.6541 20.555H41.9391C41.9391 19.175 41.7291 17.975 41.3091 16.955C40.8891 15.935 40.2441 15.14 39.3741 14.57C38.5341 13.97 37.4391 13.67 36.0891 13.67ZM67.9245 28.34C67.9245 29.9 67.5345 31.205 66.7545 32.255C65.9745 33.305 64.8645 34.1 63.4245 34.64C61.9845 35.18 60.2745 35.45 58.2945 35.45C56.6145 35.45 55.1595 35.315 53.9295 35.045C52.7295 34.775 51.6645 34.4 50.7345 33.92V30.32C51.6945 30.8 52.8495 31.25 54.1995 31.67C55.5795 32.06 56.9745 32.255 58.3845 32.255C60.3945 32.255 61.8495 31.94 62.7495 31.31C63.6495 30.65 64.0995 29.78 64.0995 28.7C64.0995 28.1 63.9345 27.56 63.6045 27.08C63.2745 26.6 62.6745 26.12 61.8045 25.64C60.9645 25.16 59.7495 24.62 58.1595 24.02C56.5995 23.42 55.2645 22.82 54.1545 22.22C53.0445 21.62 52.1895 20.9 51.5895 20.06C50.9895 19.22 50.6895 18.14 50.6895 16.82C50.6895 14.78 51.5145 13.205 53.1645 12.095C54.8445 10.985 57.0345 10.43 59.7345 10.43C61.2045 10.43 62.5695 10.58 63.8295 10.88C65.1195 11.15 66.3195 11.54 67.4295 12.05L66.0795 15.2C65.4195 14.9 64.7145 14.645 63.9645 14.435C63.2445 14.195 62.5095 14.015 61.7595 13.895C61.0095 13.745 60.2445 13.67 59.4645 13.67C57.8445 13.67 56.5995 13.94 55.7295 14.48C54.8895 14.99 54.4695 15.695 54.4695 16.595C54.4695 17.255 54.6645 17.825 55.0545 18.305C55.4445 18.755 56.0895 19.205 56.9895 19.655C57.9195 20.075 59.1495 20.585 60.6795 21.185C62.2095 21.755 63.5145 22.34 64.5945 22.94C65.6745 23.54 66.4995 24.275 67.0695 25.145C67.6395 25.985 67.9245 27.05 67.9245 28.34ZM77.7127 10.88V35H73.7527V10.88H77.7127ZM75.7777 1.835C76.3777 1.835 76.9027 2.045 77.3527 2.465C77.8327 2.855 78.0727 3.485 78.0727 4.355C78.0727 5.195 77.8327 5.825 77.3527 6.245C76.9027 6.665 76.3777 6.875 75.7777 6.875C75.1177 6.875 74.5627 6.665 74.1127 6.245C73.6627 5.825 73.4377 5.195 73.4377 4.355C73.4377 3.485 73.6627 2.855 74.1127 2.465C74.5627 2.045 75.1177 1.835 75.7777 1.835ZM93.9043 10.43C95.4943 10.43 96.9193 10.73 98.1793 11.33C99.4693 11.93 100.564 12.845 101.464 14.075H101.689L102.229 10.88H105.379V35.405C105.379 37.685 104.989 39.59 104.209 41.12C103.429 42.68 102.244 43.85 100.654 44.63C99.0643 45.41 97.0393 45.8 94.5793 45.8C92.8393 45.8 91.2343 45.665 89.7643 45.395C88.3243 45.155 87.0343 44.78 85.8943 44.27V40.625C86.6743 41.015 87.5293 41.345 88.4593 41.615C89.3893 41.915 90.3943 42.14 91.4743 42.29C92.5543 42.44 93.6643 42.515 94.8043 42.515C96.8743 42.515 98.4943 41.9 99.6643 40.67C100.864 39.47 101.464 37.82 101.464 35.72V34.775C101.464 34.415 101.479 33.905 101.509 33.245C101.539 32.555 101.569 32.075 101.599 31.805H101.419C100.579 33.035 99.5293 33.95 98.2693 34.55C97.0393 35.15 95.5993 35.45 93.9493 35.45C90.8293 35.45 88.3843 34.355 86.6143 32.165C84.8743 29.975 84.0043 26.915 84.0043 22.985C84.0043 20.405 84.3943 18.185 85.1743 16.325C85.9843 14.435 87.1243 12.98 88.5943 11.96C90.0643 10.94 91.8343 10.43 93.9043 10.43ZM94.4443 13.76C93.0943 13.76 91.9393 14.12 90.9793 14.84C90.0493 15.56 89.3293 16.61 88.8193 17.99C88.3393 19.37 88.0993 21.05 88.0993 23.03C88.0993 26 88.6393 28.28 89.7193 29.87C90.8293 31.43 92.4343 32.21 94.5343 32.21C95.7643 32.21 96.8143 32.06 97.6843 31.76C98.5543 31.43 99.2743 30.935 99.8443 30.275C100.414 29.585 100.834 28.715 101.104 27.665C101.374 26.615 101.509 25.37 101.509 23.93V22.985C101.509 20.795 101.254 19.025 100.744 17.675C100.264 16.325 99.4993 15.335 98.4493 14.705C97.3993 14.075 96.0643 13.76 94.4443 13.76ZM124.65 10.43C127.53 10.43 129.705 11.135 131.175 12.545C132.645 13.925 133.38 16.175 133.38 19.295V35H129.465V19.565C129.465 17.615 129.03 16.16 128.16 15.2C127.29 14.24 125.925 13.76 124.065 13.76C121.395 13.76 119.55 14.51 118.53 16.01C117.51 17.51 117 19.67 117 22.49V35H113.04V10.88H116.235L116.82 14.165H117.045C117.585 13.325 118.245 12.635 119.025 12.095C119.835 11.525 120.72 11.105 121.68 10.835C122.64 10.565 123.63 10.43 124.65 10.43ZM158.584 3.5C162.229 3.545 165.964 4.985 168.709 7.73L162.679 12.995C160.564 10.7 155.569 10.43 156.109 14.615C156.559 16.64 162.904 16.82 165.829 19.655C168.079 21.77 169.429 27.845 165.964 31.625C160.114 37.79 151.699 34.595 147.919 30.995L153.184 25.28C154.489 27.305 156.334 28.385 158.449 27.62C162.139 25.145 155.389 23.435 153.409 22.31C147.874 19.655 146.299 13.22 148.729 8.675C150.979 5.165 154.714 3.5 158.584 3.5ZM155.209 5.975C155.164 5.975 155.119 6.02 155.074 6.11C154.984 6.2 154.984 6.335 155.029 6.38C155.074 6.425 155.074 6.425 155.029 6.515C154.939 6.605 154.759 6.965 154.714 7.055C154.624 7.235 154.624 7.235 154.624 7.1C154.579 6.875 154.534 6.74 154.399 6.695C154.264 6.65 154.174 6.74 154.129 6.875C154.084 7.1 154.129 7.28 154.309 7.55L154.444 7.73L154.399 7.91C154.354 8.135 154.309 8.495 154.264 8.675C154.264 8.765 154.264 9.125 154.264 9.215C154.264 9.26 154.264 9.305 154.174 9.44C154.129 9.53 154.039 9.665 153.949 9.755C153.904 9.845 153.859 9.935 153.859 9.935C153.859 9.935 153.859 9.89 153.859 9.845C153.859 9.62 153.724 8.81 153.634 8.45V8.36L153.769 8.27C153.949 8.135 154.084 7.955 154.084 7.775C154.129 7.73 154.084 7.595 154.039 7.55C153.994 7.505 153.904 7.505 153.814 7.505C153.679 7.55 153.589 7.685 153.544 7.82C153.499 7.865 153.499 7.865 153.499 7.865C153.499 7.865 153.454 7.82 153.409 7.775C153.409 7.685 153.364 7.55 153.319 7.46L153.229 7.325H153.274C153.409 7.19 153.544 6.965 153.544 6.875C153.544 6.785 153.499 6.65 153.454 6.605C153.409 6.56 153.319 6.56 153.274 6.56C153.184 6.605 153.094 6.74 153.094 6.875L153.049 6.965L152.959 6.875C152.914 6.785 152.914 6.785 152.914 6.74C153.004 6.515 152.734 6.29 152.554 6.38C152.464 6.425 152.374 6.56 152.419 6.65C152.464 6.83 152.599 6.92 152.734 6.875C152.779 6.875 152.779 6.875 152.869 6.965C152.914 7.055 153.094 7.325 153.094 7.37C153.094 7.37 153.049 7.325 153.004 7.325C152.779 7.19 152.644 7.145 152.509 7.19C152.464 7.235 152.419 7.28 152.464 7.37C152.464 7.46 152.509 7.55 152.599 7.64C152.689 7.685 152.689 7.685 152.824 7.73C152.959 7.73 153.004 7.73 153.094 7.73C153.184 7.73 153.229 7.685 153.229 7.73C153.319 7.865 153.454 8.225 153.454 8.27C153.454 8.27 153.409 8.225 153.364 8.225C153.274 8.135 153.184 8.09 153.049 8.045C152.959 8.045 152.959 8.045 152.914 8.09C152.779 8.18 152.779 8.27 152.869 8.45C152.959 8.585 153.139 8.72 153.409 8.765C153.499 8.765 153.544 8.765 153.544 8.81C153.544 8.81 153.634 9.26 153.679 9.575C153.679 9.71 153.679 9.89 153.679 10.025L153.724 10.25L153.544 10.61C153.454 10.79 153.319 11.06 153.274 11.24C153.184 11.375 153.139 11.51 153.139 11.51C153.139 11.51 153.139 11.465 153.139 11.42C153.094 11.285 153.049 10.88 153.049 10.79C153.049 10.745 153.049 10.745 153.139 10.7C153.274 10.655 153.364 10.52 153.454 10.385C153.544 10.115 153.364 9.935 153.139 10.07C153.094 10.115 152.959 10.295 152.959 10.34C152.959 10.34 152.914 10.25 152.869 10.16C152.824 10.07 152.779 9.935 152.779 9.89L152.734 9.8L152.779 9.665C152.914 9.485 152.959 9.305 152.914 9.17C152.869 9.125 152.869 9.125 152.824 9.125C152.689 9.08 152.599 9.215 152.554 9.395L152.509 9.485L152.464 9.395C152.419 9.35 152.419 9.305 152.419 9.26C152.419 9.17 152.419 9.125 152.374 9.08C152.329 8.99 152.194 8.99 152.059 9.035C152.014 9.08 152.014 9.08 152.014 9.17C152.014 9.215 152.014 9.26 152.014 9.305C152.059 9.395 152.149 9.44 152.239 9.44C152.329 9.44 152.329 9.44 152.374 9.485C152.419 9.575 152.554 9.8 152.554 9.845C152.554 9.845 152.509 9.8 152.464 9.755C152.374 9.71 152.239 9.665 152.149 9.71C152.059 9.71 152.014 9.845 152.104 9.935C152.149 10.115 152.374 10.205 152.644 10.16H152.734L152.779 10.385C152.824 10.61 152.869 10.835 152.869 10.88C152.869 10.88 152.869 10.835 152.824 10.79C152.689 10.61 152.419 10.52 152.329 10.655C152.284 10.7 152.284 10.745 152.284 10.835C152.374 11.015 152.509 11.15 152.824 11.195H152.959V11.33C152.959 11.375 152.959 11.465 152.959 11.465C152.959 11.51 152.959 11.6 152.959 11.69C152.959 11.78 152.959 11.87 153.004 11.915C153.004 11.96 152.959 12.005 152.914 12.14C152.779 12.545 152.734 12.725 152.644 13.31C152.554 13.76 152.509 13.895 152.554 13.895C152.554 13.94 152.599 13.94 152.644 13.94C152.644 13.895 152.689 13.76 152.734 13.58C152.779 13.22 152.824 13.13 152.914 12.995C153.004 12.86 153.184 12.635 153.274 12.545L153.319 12.455L153.454 12.545C153.544 12.59 153.589 12.635 153.769 12.635C153.949 12.68 153.949 12.68 154.039 12.68C154.174 12.635 154.219 12.59 154.264 12.5C154.264 12.41 154.264 12.32 154.174 12.275C154.084 12.23 153.859 12.185 153.724 12.185C153.679 12.185 153.634 12.185 153.634 12.185C153.679 12.14 153.904 11.96 153.994 11.915C154.174 11.78 154.174 11.825 154.219 11.87C154.309 12.005 154.489 12.095 154.669 12.14C154.804 12.185 154.939 12.14 154.984 12.05C155.029 12.005 155.029 11.96 155.029 11.915C154.984 11.825 154.849 11.735 154.624 11.645H154.534L154.759 11.555C154.849 11.51 154.939 11.465 154.939 11.465L154.984 11.51C155.164 11.69 155.524 11.465 155.434 11.24C155.389 11.15 155.344 11.105 155.209 11.105C155.119 11.06 155.119 11.06 155.074 11.105C154.984 11.15 154.939 11.195 154.894 11.285C154.894 11.33 154.894 11.33 154.804 11.375C154.759 11.375 154.759 11.375 154.759 11.375C154.759 11.33 154.804 11.285 154.804 11.24C154.849 11.105 154.849 11.015 154.804 10.925C154.759 10.88 154.759 10.88 154.714 10.88C154.534 10.835 154.399 11.015 154.354 11.33C154.354 11.375 154.354 11.465 154.354 11.465C154.399 11.555 154.354 11.555 154.264 11.6C154.174 11.645 154.084 11.69 153.994 11.735C153.904 11.78 153.859 11.825 153.859 11.825C153.859 11.825 153.859 11.78 153.904 11.735C153.994 11.6 154.039 11.42 154.039 11.33C153.994 11.24 153.949 11.195 153.904 11.15C153.814 11.15 153.679 11.24 153.589 11.33C153.499 11.465 153.454 11.735 153.454 12.005L153.499 12.095L153.364 12.23C153.274 12.32 153.139 12.41 153.004 12.635C152.914 12.725 152.914 12.725 152.914 12.68C152.959 12.5 153.229 11.69 153.409 11.285C153.679 10.7 153.949 10.115 154.084 9.89L154.129 9.8H154.174C154.309 9.845 154.624 9.8 154.939 9.71L155.074 9.665L155.164 9.8C155.299 9.98 155.524 10.16 155.704 10.16C155.794 10.16 155.884 10.16 155.929 10.115C155.974 10.07 155.974 9.98 155.929 9.89C155.929 9.8 155.749 9.665 155.569 9.575C155.524 9.575 155.479 9.53 155.479 9.53C155.479 9.53 155.524 9.485 155.614 9.485C155.659 9.44 155.794 9.395 155.839 9.35C155.929 9.305 156.019 9.305 156.019 9.305C156.109 9.395 156.154 9.395 156.199 9.395C156.379 9.35 156.469 9.305 156.469 9.17C156.469 9.035 156.379 8.945 156.289 8.9C156.154 8.9 156.064 8.945 155.974 9.08C155.974 9.125 155.974 9.17 155.839 9.215C155.794 9.215 155.749 9.26 155.749 9.215C155.749 9.215 155.749 9.215 155.749 9.17C155.974 8.945 155.929 8.63 155.704 8.72C155.524 8.765 155.344 8.99 155.299 9.305V9.44L155.119 9.485C155.029 9.53 154.894 9.575 154.804 9.62C154.579 9.665 154.219 9.71 154.219 9.665C154.174 9.665 154.219 9.62 154.444 9.35C154.714 8.9 155.029 8.54 155.434 8.18C155.524 8.09 155.569 8.09 155.569 8.09C155.749 8.225 155.839 8.27 156.019 8.27C156.154 8.315 156.199 8.315 156.289 8.315C156.469 8.315 156.559 8.225 156.604 8.09C156.604 7.955 156.514 7.865 156.289 7.82C156.154 7.775 156.109 7.775 156.019 7.775C155.974 7.775 155.929 7.775 155.929 7.775C155.929 7.775 156.109 7.64 156.334 7.505L156.739 7.19L156.874 7.235C156.919 7.235 156.964 7.235 157.054 7.19C157.144 7.145 157.234 7.055 157.234 6.965C157.234 6.875 157.234 6.83 157.144 6.74C157.054 6.65 156.874 6.65 156.739 6.785C156.694 6.83 156.694 6.875 156.694 6.92C156.649 7.01 156.649 7.055 156.649 7.055C156.649 7.1 156.604 7.1 156.514 7.19C156.424 7.235 156.334 7.28 156.334 7.28C156.334 7.28 156.334 7.235 156.379 7.19C156.424 7.055 156.469 6.83 156.424 6.74C156.379 6.515 156.154 6.515 156.019 6.695C155.974 6.785 155.974 6.785 155.929 6.92C155.929 7.055 155.929 7.1 155.929 7.28C155.974 7.37 155.974 7.46 155.974 7.505C155.974 7.55 155.974 7.55 155.884 7.64C155.479 7.91 154.984 8.36 154.579 8.9C154.489 8.99 154.444 9.08 154.399 9.035C154.399 9.035 154.399 8.945 154.444 8.81C154.444 8.54 154.489 8.09 154.579 7.82C154.624 7.64 154.759 7.37 154.759 7.325C154.804 7.28 154.804 7.28 154.894 7.28C155.074 7.235 155.344 7.145 155.434 7.055C155.524 6.965 155.569 6.965 155.569 6.875C155.569 6.785 155.569 6.785 155.524 6.74C155.524 6.695 155.479 6.695 155.434 6.65C155.344 6.65 155.209 6.695 155.119 6.74C155.074 6.74 155.074 6.74 155.074 6.74C155.074 6.74 155.074 6.65 155.119 6.605C155.209 6.47 155.209 6.47 155.254 6.47C155.344 6.47 155.479 6.335 155.479 6.245C155.479 6.2 155.434 6.065 155.389 6.02C155.389 6.02 155.344 6.02 155.299 5.975C155.254 5.975 155.254 5.975 155.209 5.975ZM162.814 23.795C162.544 23.795 162.364 24.02 162.274 24.425C162.184 24.875 162.319 25.325 162.634 25.82C162.724 25.955 162.724 25.955 162.724 26C162.589 26.54 162.499 26.945 162.544 27.395C162.544 27.62 162.589 27.98 162.634 28.205C162.634 28.295 162.634 28.385 162.679 28.385C162.679 28.43 162.634 28.475 162.409 28.925C162.274 29.195 162.094 29.51 161.959 29.735C161.824 29.96 161.734 30.095 161.734 30.095C161.734 30.14 161.689 29.96 161.644 29.735C161.464 29.105 161.464 28.655 161.509 28.07L161.554 27.845L161.644 27.665C161.779 27.44 161.869 27.26 161.914 26.99C162.049 26.36 161.914 25.865 161.554 25.685C161.464 25.595 161.419 25.595 161.284 25.595C161.194 25.595 161.104 25.64 161.059 25.685C160.969 25.775 160.879 25.955 160.834 26.135C160.744 26.675 160.924 27.17 161.374 27.71C161.374 27.755 161.419 27.8 161.419 27.8C161.419 27.8 161.419 27.89 161.374 28.025C161.329 28.655 161.329 29.06 161.464 29.735C161.509 29.87 161.554 30.05 161.599 30.14L161.644 30.275L161.554 30.365C161.509 30.455 161.329 30.725 161.104 31.04C160.879 31.355 160.654 31.67 160.609 31.76L160.474 31.94L160.519 31.985C160.519 31.985 160.519 32.03 160.564 32.03C160.609 32.03 160.609 31.985 160.654 31.895C160.789 31.76 161.509 30.725 161.599 30.545L161.734 30.365L161.914 30.275C162.814 30.05 163.264 29.825 163.849 29.33L163.939 29.24L164.074 29.285C164.479 29.33 164.749 29.285 165.019 29.24C165.334 29.15 165.604 28.97 165.784 28.7C165.919 28.52 165.964 28.34 165.829 28.16C165.784 28.07 165.604 27.98 165.469 27.98C165.199 27.89 164.929 27.98 164.614 28.205C164.434 28.34 164.299 28.475 164.164 28.61C164.074 28.7 164.029 28.745 163.939 28.925L163.804 29.15L163.669 29.285C163.309 29.555 162.994 29.78 162.634 29.915C162.454 29.96 162.004 30.14 161.914 30.185H161.869L162.184 29.645C162.319 29.375 162.544 28.97 162.634 28.835C162.769 28.52 162.769 28.52 162.814 28.475C162.859 28.475 162.904 28.475 162.949 28.43C163.084 28.385 163.444 28.205 163.534 28.205C163.534 28.16 163.624 28.115 163.714 28.07C164.074 27.89 164.434 27.62 164.794 27.26L164.884 27.125H165.019C165.604 27.17 166.054 27.035 166.369 26.72C166.684 26.45 166.819 26.18 166.729 25.955C166.684 25.865 166.639 25.82 166.504 25.775C166.189 25.595 165.784 25.685 165.379 26.09C165.244 26.225 165.199 26.27 165.109 26.405C164.974 26.54 164.884 26.765 164.794 26.9L164.749 27.035L164.569 27.26C164.164 27.665 163.804 27.89 163.219 28.205C163.084 28.25 162.949 28.295 162.904 28.295V28.34L162.949 28.25C162.949 28.16 162.994 28.07 163.039 27.98C163.264 27.53 163.534 26.945 163.759 26.495L163.804 26.315L163.939 26.27C164.254 26.09 164.524 25.91 164.659 25.685C164.974 25.325 165.109 24.74 164.929 24.47C164.839 24.38 164.749 24.335 164.614 24.335C164.389 24.29 164.164 24.425 164.029 24.605C163.939 24.74 163.804 24.965 163.714 25.145C163.624 25.505 163.579 25.91 163.669 26.18C163.669 26.225 163.669 26.315 163.669 26.315C163.669 26.405 162.859 28.115 162.769 28.205C162.769 28.205 162.769 28.205 162.724 28.07C162.634 27.395 162.679 26.9 162.769 26.36C162.859 26 162.859 26 162.904 25.91C163.174 25.685 163.354 25.1 163.399 24.695C163.399 24.245 163.219 23.885 162.904 23.795C162.859 23.795 162.859 23.795 162.814 23.795ZM177.6 10.835C177.6 11.405 177.57 11.99 177.51 12.59C177.48 13.19 177.435 13.73 177.375 14.21H177.645C178.155 13.37 178.8 12.68 179.58 12.14C180.36 11.6 181.23 11.195 182.19 10.925C183.15 10.625 184.14 10.475 185.16 10.475C187.11 10.475 188.73 10.79 190.02 11.42C191.34 12.02 192.33 12.965 192.99 14.255C193.65 15.545 193.98 17.225 193.98 19.295V35H190.065V19.565C190.065 17.615 189.63 16.16 188.76 15.2C187.89 14.24 186.525 13.76 184.665 13.76C182.865 13.76 181.455 14.105 180.435 14.795C179.415 15.455 178.68 16.445 178.23 17.765C177.81 19.055 177.6 20.645 177.6 22.535V35H173.64V0.799998H177.6V10.835ZM210.593 10.475C213.533 10.475 215.708 11.12 217.118 12.41C218.528 13.7 219.233 15.755 219.233 18.575V35H216.353L215.588 31.58H215.408C214.718 32.45 213.998 33.185 213.248 33.785C212.528 34.355 211.688 34.775 210.728 35.045C209.798 35.315 208.658 35.45 207.308 35.45C205.868 35.45 204.563 35.195 203.393 34.685C202.253 34.175 201.353 33.395 200.693 32.345C200.033 31.265 199.703 29.915 199.703 28.295C199.703 25.895 200.648 24.05 202.538 22.76C204.428 21.44 207.338 20.72 211.268 20.6L215.363 20.465V19.025C215.363 17.015 214.928 15.62 214.058 14.84C213.188 14.06 211.958 13.67 210.368 13.67C209.108 13.67 207.908 13.865 206.768 14.255C205.628 14.615 204.563 15.035 203.573 15.515L202.358 12.545C203.408 11.975 204.653 11.495 206.093 11.105C207.533 10.685 209.033 10.475 210.593 10.475ZM211.763 23.345C208.763 23.465 206.678 23.945 205.508 24.785C204.368 25.625 203.798 26.81 203.798 28.34C203.798 29.69 204.203 30.68 205.013 31.31C205.853 31.94 206.918 32.255 208.208 32.255C210.248 32.255 211.943 31.7 213.293 30.59C214.643 29.45 215.318 27.71 215.318 25.37V23.21L211.763 23.345ZM236.357 35.45C234.227 35.45 232.322 35.015 230.642 34.145C228.992 33.275 227.687 31.925 226.727 30.095C225.797 28.265 225.332 25.925 225.332 23.075C225.332 20.105 225.827 17.69 226.817 15.83C227.807 13.97 229.142 12.605 230.822 11.735C232.532 10.865 234.467 10.43 236.627 10.43C237.857 10.43 239.042 10.565 240.182 10.835C241.322 11.075 242.252 11.375 242.972 11.735L241.757 15.02C241.037 14.75 240.197 14.495 239.237 14.255C238.277 14.015 237.377 13.895 236.537 13.895C234.917 13.895 233.582 14.24 232.532 14.93C231.482 15.62 230.702 16.64 230.192 17.99C229.682 19.34 229.427 21.02 229.427 23.03C229.427 24.95 229.682 26.585 230.192 27.935C230.702 29.285 231.467 30.305 232.487 30.995C233.507 31.685 234.782 32.03 236.312 32.03C237.632 32.03 238.787 31.895 239.777 31.625C240.797 31.355 241.727 31.025 242.567 30.635V34.145C241.757 34.565 240.857 34.88 239.867 35.09C238.907 35.33 237.737 35.45 236.357 35.45ZM252.219 18.665C252.219 19.145 252.189 19.775 252.129 20.555C252.099 21.335 252.069 22.01 252.039 22.58H252.219C252.399 22.34 252.669 21.995 253.029 21.545C253.389 21.095 253.749 20.645 254.109 20.195C254.499 19.715 254.829 19.325 255.099 19.025L262.794 10.88H267.429L257.664 21.185L268.104 35H263.334L254.964 23.75L252.219 26.135V35H248.304V0.799998H252.219V18.665Z" fill="white"/>
</svg>
