<svg width="239" height="41" viewBox="0 0 239 41" fill="none" xmlns="http://www.w3.org/2000/svg">
<path d="M1.49012e-08 3H6.76C16.44 5.2 22.6 19.12 17.48 26.48C17.28 26.32 17.12 26.2 16.96 26.04C16.48 25.6 15.88 24.96 15.48 24.44C15.28 24.2 14.76 23.44 14.64 23.24L14.6 23.16L14.76 23.04C15.2 22.68 15.56 22.28 15.84 21.84C16.28 21.08 16.4 20.48 16.12 20.08C16 19.88 15.8 19.8 15.36 19.84C15.16 19.88 15.08 19.88 14.84 19.84C14.52 19.76 14.36 19.8 14.04 19.92C13.88 20 13.76 20.04 13.52 20.08C12.92 20.2 12.6 20.32 12.36 20.44C12.2 20.56 12.16 20.64 12.08 20.84C12.04 20.92 11.96 21.08 11.88 21.16C11.76 21.32 11.72 21.44 11.68 21.56C11.68 21.64 11.68 21.64 11.56 21.68C11.4 21.76 11.2 21.92 11.12 22.08C11.08 22.16 11 22.28 11 22.32C10.96 22.44 10.96 23.12 10.96 23.24C11 23.36 11.12 23.56 11.24 23.64C11.72 23.96 12.52 24.04 13.24 23.8C13.56 23.68 13.96 23.52 14.32 23.36L14.44 23.28L14.68 23.64C15.32 24.56 15.68 25 16.32 25.68C16.64 26 16.96 26.32 17.36 26.64C15.44 29.28 12.04 31 6.76 31H1.49012e-08V3ZM4.76 5.12C4.52 5.12 4.32 5.16 4.2 5.28C3.88 5.56 3.96 6.04 4.4 6.44C4.6 6.6 4.92 6.8 5.2 6.88C5.6 7 6.24 7 6.64 6.92H6.72L6.8 7.04C7.08 7.4 7.16 7.56 7.16 7.56C7.16 7.56 7.08 7.56 6.96 7.52C6.4 7.32 5.76 7.24 5.28 7.32C4.76 7.44 4.32 7.8 4.36 8.12C4.4 8.2 4.4 8.24 4.48 8.36C4.6 8.48 4.6 8.48 4.76 8.56C5.24 8.84 5.84 8.84 6.56 8.52C6.88 8.36 7.08 8.24 7.28 8.12L7.44 8L7.92 8.56C8.16 8.84 8.36 9.12 8.36 9.12C8.36 9.12 8.32 9.12 8.2 9.08C7.48 8.88 6.92 8.92 6.32 9.2C6.2 9.28 5.92 9.52 5.84 9.64C5.72 9.76 5.68 9.96 5.64 10.08C5.64 10.32 5.76 10.56 6 10.68C6.32 10.8 6.8 10.76 7.44 10.52C7.92 10.36 8.2 10.16 8.52 9.84C8.6 9.76 8.68 9.64 8.72 9.6C8.76 9.52 8.76 9.52 8.84 9.64C8.92 9.72 9.32 10.12 9.56 10.36C9.68 10.48 9.76 10.56 9.76 10.56C9.76 10.6 9.72 10.56 9.64 10.56C9.4 10.52 9.04 10.48 8.8 10.52C8.56 10.56 8.32 10.64 8.12 10.72C8 10.76 7.96 10.8 7.76 10.96C7.6 11.12 7.56 11.16 7.52 11.24C7.4 11.44 7.36 11.64 7.4 11.88C7.44 12.04 7.6 12.24 7.76 12.32C7.96 12.44 8.24 12.48 8.52 12.4C8.88 12.32 9.2 12.16 9.64 11.8C9.96 11.52 10.12 11.36 10.28 11.16C10.32 11.08 10.32 11.04 10.36 11.04C10.36 11.04 11.24 11.72 11.32 11.8C11.36 11.84 11.4 11.84 11.4 11.84C11.36 11.88 11.28 11.88 11.2 11.84C10.68 11.84 10.12 11.92 9.68 12.12C9.48 12.24 9.16 12.44 9 12.64C8.68 13.08 8.8 13.52 9.36 13.76C9.8 13.96 10.44 13.8 11.04 13.28C11.16 13.2 11.28 13.08 11.32 13.04C11.44 12.88 11.68 12.52 11.76 12.36C11.8 12.28 11.84 12.2 11.84 12.2C11.88 12.2 12.36 12.64 12.56 12.8C12.64 12.88 12.76 13 12.84 13.08C12.88 13.16 12.92 13.2 12.96 13.2C13 13.2 13.04 13.16 13.04 13.12C13.04 13 12.6 12.6 12.12 12.2C12.04 12.12 11.96 12.08 11.96 12.04C11.96 12.04 11.96 12 12 11.96C12.6 11 12.76 9.92 12.4 9.24C12.28 9 12.04 8.84 11.84 8.84C11.52 8.8 11.2 9.2 11.08 9.68C10.96 10.16 11.04 10.84 11.2 11.28C11.32 11.56 11.32 11.52 11.28 11.52C11.24 11.48 10.48 10.92 10.44 10.88C10.44 10.88 10.48 10.8 10.48 10.72C10.56 10.52 10.72 10.08 10.76 9.88C10.96 9.16 10.92 8.76 10.68 8.4C10.48 8.12 10.2 8.08 9.96 8.28C9.52 8.68 9.4 9.36 9.68 10.08C9.72 10.16 9.76 10.28 9.76 10.28C9.8 10.32 9.28 9.8 9.04 9.56L8.92 9.44L9.04 9.32C9.32 9 9.68 8.32 9.8 7.88C9.88 7.64 9.88 7.36 9.84 7.16C9.8 7.04 9.8 7 9.72 6.88C9.64 6.8 9.6 6.76 9.52 6.76C9.28 6.64 8.92 6.8 8.72 7.16C8.4 7.68 8.32 8.16 8.44 8.68L8.48 8.92L8.36 8.8C8.2 8.64 7.64 7.96 7.64 7.92C7.64 7.92 7.76 7.84 7.88 7.72C8.24 7.44 8.48 7.16 8.6 6.8C8.76 6.48 8.8 6.04 8.76 5.76C8.64 5.28 8.16 5.04 7.68 5.28C7.4 5.44 7.2 5.76 7.12 6.32C7.08 6.56 7.08 6.76 7.08 6.96C7.12 7.08 7.12 7.12 7.12 7.12C7.08 7.12 6.76 6.68 6.72 6.56C6.68 6.52 6.6 6.36 6.48 6.24C6 5.56 5.48 5.2 4.88 5.12C4.84 5.12 4.8 5.12 4.76 5.12ZM6.76 14.04V23.04C10.12 23.2 11.6 14.04 6.76 14.04ZM3.68 20.2C3.64 20.2 3.64 20.2 3.6 20.24C3.48 20.24 3.4 20.28 3.32 20.32C3.2 20.4 3.16 20.44 3.08 20.52L3.04 20.6L3 20.56C2.88 20.48 2.68 20.48 2.52 20.52L2.44 20.56L2.36 20.52C2.2 20.48 2 20.48 1.84 20.52C1.72 20.6 1.56 20.8 1.52 21C1.48 21.16 1.52 21.4 1.56 21.56C1.6 21.68 1.72 21.92 1.84 22.04C2 22.36 2.44 22.6 2.8 22.72C2.96 22.76 3.16 22.76 3.32 22.76L3.44 22.72V22.84C3.48 23.16 3.48 23.52 3.48 23.76C3.44 24.2 3.4 25 3.36 25.44C3.32 25.76 3.2 26.44 3.2 26.48C3.2 26.48 3.16 26.48 3.16 26.44C3.16 26.44 3.16 26.32 3.16 26.24C3.08 25.6 2.92 24.88 2.76 24.4C2.48 23.56 2.16 23.16 1.72 23.08C1.44 23.04 1.16 23.24 1.04 23.56C0.88 24.08 1 24.72 1.44 25.56C1.76 26.12 2.32 26.8 2.84 27.24C2.92 27.32 2.96 27.36 2.96 27.36C3 27.4 2.8 27.96 2.64 28.44C2.44 28.96 2.36 29.28 2.36 29.32V29.36C2.4 29.4 2.44 29.4 2.48 29.36C2.48 29.32 2.56 29.12 2.64 28.84C2.76 28.6 2.8 28.4 2.84 28.36C2.84 28.36 2.88 28.36 2.92 28.32C3.08 28.28 3.56 28.12 3.72 28.08C4.16 27.96 4.76 27.6 5.28 27.2C6.16 26.52 6.76 25.84 6.92 25.24C7 25.04 7 24.84 6.92 24.72C6.88 24.64 6.8 24.56 6.72 24.48C6.64 24.48 6.6 24.44 6.44 24.44C6.24 24.44 6.12 24.48 5.88 24.56C5.6 24.68 5.28 24.84 5.04 25.04C4.8 25.24 4.4 25.64 4.16 25.96C3.8 26.4 3.48 26.92 3.16 27.44C3.12 27.52 3.08 27.56 3.08 27.56C3.08 27.56 3.12 27.44 3.16 27.32C3.2 27.08 3.28 26.84 3.32 26.52C3.44 26.12 3.48 25.6 3.56 24.92C3.64 24 3.64 23.6 3.6 22.96C3.56 22.84 3.56 22.72 3.56 22.72C3.6 22.72 3.64 22.72 3.68 22.76C4.04 22.88 4.4 22.84 4.84 22.64C5.04 22.52 5.12 22.48 5.28 22.32C5.6 22 5.76 21.68 5.76 21.36C5.76 21.08 5.6 20.88 5.4 20.8C5.28 20.72 5.12 20.72 5 20.72C4.92 20.76 4.92 20.76 4.88 20.72C4.84 20.68 4.68 20.64 4.6 20.64C4.48 20.6 4.44 20.64 4.32 20.68C4.32 20.68 4.28 20.64 4.24 20.6C4.16 20.36 3.92 20.2 3.68 20.2ZM32.0081 9.16C33.8481 9.16 35.4215 9.56 36.7281 10.36C38.0615 11.16 39.0748 12.2933 39.7681 13.76C40.4881 15.2 40.8481 16.8933 40.8481 18.84V20.96H26.1681C26.2215 23.3867 26.8348 25.24 28.0081 26.52C29.2081 27.7733 30.8748 28.4 33.0081 28.4C34.3681 28.4 35.5681 28.28 36.6081 28.04C37.6748 27.7733 38.7681 27.4 39.8881 26.92V30C38.7948 30.48 37.7148 30.8267 36.6481 31.04C35.5815 31.28 34.3148 31.4 32.8481 31.4C30.8215 31.4 29.0215 30.9867 27.4481 30.16C25.9015 29.3333 24.6881 28.1067 23.8081 26.48C22.9548 24.8267 22.5281 22.8133 22.5281 20.44C22.5281 18.0933 22.9148 16.08 23.6881 14.4C24.4881 12.72 25.5948 11.4267 27.0081 10.52C28.4481 9.61333 30.1148 9.16 32.0081 9.16ZM31.9681 12.04C30.2881 12.04 28.9548 12.5867 27.9681 13.68C27.0081 14.7467 26.4348 16.24 26.2481 18.16H37.1681C37.1681 16.9333 36.9815 15.8667 36.6081 14.96C36.2348 14.0533 35.6615 13.3467 34.8881 12.84C34.1415 12.3067 33.1681 12.04 31.9681 12.04ZM60.2663 25.08C60.2663 26.4667 59.9196 27.6267 59.2263 28.56C58.5329 29.4933 57.5463 30.2 56.2663 30.68C54.9863 31.16 53.4663 31.4 51.7063 31.4C50.2129 31.4 48.9196 31.28 47.8263 31.04C46.7596 30.8 45.8129 30.4667 44.9863 30.04V26.84C45.8396 27.2667 46.8663 27.6667 48.0663 28.04C49.2929 28.3867 50.5329 28.56 51.7863 28.56C53.5729 28.56 54.8663 28.28 55.6663 27.72C56.4663 27.1333 56.8663 26.36 56.8663 25.4C56.8663 24.8667 56.7196 24.3867 56.4263 23.96C56.1329 23.5333 55.5996 23.1067 54.8263 22.68C54.0796 22.2533 52.9996 21.7733 51.5863 21.24C50.1996 20.7067 49.0129 20.1733 48.0263 19.64C47.0396 19.1067 46.2796 18.4667 45.7463 17.72C45.2129 16.9733 44.9463 16.0133 44.9463 14.84C44.9463 13.0267 45.6796 11.6267 47.1463 10.64C48.6396 9.65333 50.5863 9.16 52.9863 9.16C54.2929 9.16 55.5063 9.29333 56.6263 9.56C57.7729 9.8 58.8396 10.1467 59.8263 10.6L58.6263 13.4C58.0396 13.1333 57.4129 12.9067 56.7463 12.72C56.1063 12.5067 55.4529 12.3467 54.7863 12.24C54.1196 12.1067 53.4396 12.04 52.7463 12.04C51.3063 12.04 50.1996 12.28 49.4263 12.76C48.6796 13.2133 48.3063 13.84 48.3063 14.64C48.3063 15.2267 48.4796 15.7333 48.8263 16.16C49.1729 16.56 49.7463 16.96 50.5463 17.36C51.3729 17.7333 52.4663 18.1867 53.8263 18.72C55.1863 19.2267 56.3463 19.7467 57.3063 20.28C58.2663 20.8133 58.9996 21.4667 59.5063 22.24C60.0129 22.9867 60.2663 23.9333 60.2663 25.08ZM68.9669 9.56V31H65.4469V9.56H68.9669ZM67.2469 1.52C67.7802 1.52 68.2469 1.70666 68.6469 2.08C69.0735 2.42666 69.2869 2.98666 69.2869 3.76C69.2869 4.50666 69.0735 5.06666 68.6469 5.44C68.2469 5.81333 67.7802 6 67.2469 6C66.6602 6 66.1669 5.81333 65.7669 5.44C65.3669 5.06666 65.1669 4.50666 65.1669 3.76C65.1669 2.98666 65.3669 2.42666 65.7669 2.08C66.1669 1.70666 66.6602 1.52 67.2469 1.52ZM83.3594 9.16C84.7727 9.16 86.0394 9.42667 87.1594 9.96C88.306 10.4933 89.2794 11.3067 90.0794 12.4H90.2794L90.7594 9.56H93.5594V31.36C93.5594 33.3867 93.2127 35.08 92.5194 36.44C91.826 37.8267 90.7727 38.8667 89.3594 39.56C87.946 40.2533 86.146 40.6 83.9594 40.6C82.4127 40.6 80.986 40.48 79.6794 40.24C78.3994 40.0267 77.2527 39.6933 76.2394 39.24V36C76.9327 36.3467 77.6927 36.64 78.5194 36.88C79.346 37.1467 80.2394 37.3467 81.1994 37.48C82.1594 37.6133 83.146 37.68 84.1594 37.68C85.9994 37.68 87.4394 37.1333 88.4794 36.04C89.546 34.9733 90.0794 33.5067 90.0794 31.64V30.8C90.0794 30.48 90.0927 30.0267 90.1194 29.44C90.146 28.8267 90.1727 28.4 90.1994 28.16H90.0394C89.2927 29.2533 88.3594 30.0667 87.2394 30.6C86.146 31.1333 84.866 31.4 83.3994 31.4C80.626 31.4 78.4527 30.4267 76.8794 28.48C75.3327 26.5333 74.5594 23.8133 74.5594 20.32C74.5594 18.0267 74.906 16.0533 75.5994 14.4C76.3194 12.72 77.3327 11.4267 78.6394 10.52C79.946 9.61333 81.5194 9.16 83.3594 9.16ZM83.8394 12.12C82.6394 12.12 81.6127 12.44 80.7594 13.08C79.9327 13.72 79.2927 14.6533 78.8394 15.88C78.4127 17.1067 78.1994 18.6 78.1994 20.36C78.1994 23 78.6794 25.0267 79.6394 26.44C80.626 27.8267 82.0527 28.52 83.9194 28.52C85.0127 28.52 85.946 28.3867 86.7194 28.12C87.4927 27.8267 88.1327 27.3867 88.6394 26.8C89.146 26.1867 89.5194 25.4133 89.7594 24.48C89.9994 23.5467 90.1194 22.44 90.1194 21.16V20.32C90.1194 18.3733 89.8927 16.8 89.4394 15.6C89.0127 14.4 88.3327 13.52 87.3994 12.96C86.466 12.4 85.2794 12.12 83.8394 12.12ZM110.689 9.16C113.249 9.16 115.182 9.78667 116.489 11.04C117.795 12.2667 118.449 14.2667 118.449 17.04V31H114.969V17.28C114.969 15.5467 114.582 14.2533 113.809 13.4C113.035 12.5467 111.822 12.12 110.169 12.12C107.795 12.12 106.155 12.7867 105.249 14.12C104.342 15.4533 103.889 17.3733 103.889 19.88V31H100.369V9.56H103.209L103.729 12.48H103.929C104.409 11.7333 104.995 11.12 105.689 10.64C106.409 10.1333 107.195 9.76 108.049 9.52C108.902 9.28 109.782 9.16 110.689 9.16ZM140.853 3C144.093 3.04 147.413 4.32 149.853 6.76L144.493 11.44C142.613 9.4 138.173 9.16 138.653 12.88C139.053 14.68 144.693 14.84 147.293 17.36C149.293 19.24 150.493 24.64 147.413 28C142.213 33.48 134.733 30.64 131.373 27.44L136.053 22.36C137.213 24.16 138.853 25.12 140.733 24.44C144.013 22.24 138.013 20.72 136.253 19.72C131.333 17.36 129.933 11.64 132.093 7.6C134.093 4.48 137.413 3 140.853 3ZM137.853 5.2C137.813 5.2 137.773 5.24 137.733 5.32C137.653 5.4 137.653 5.52 137.693 5.56C137.733 5.6 137.733 5.6 137.693 5.68C137.613 5.76 137.453 6.08 137.413 6.16C137.333 6.32 137.333 6.32 137.333 6.2C137.293 6 137.253 5.88 137.133 5.84C137.013 5.8 136.933 5.88 136.893 6C136.853 6.2 136.893 6.36 137.053 6.6L137.173 6.76L137.133 6.92C137.093 7.12 137.053 7.44 137.013 7.6C137.013 7.68 137.013 8 137.013 8.08C137.013 8.12 137.013 8.16 136.933 8.28C136.893 8.36 136.813 8.48 136.733 8.56C136.693 8.64 136.653 8.72 136.653 8.72C136.653 8.72 136.653 8.68 136.653 8.64C136.653 8.44 136.533 7.72 136.453 7.4V7.32L136.573 7.24C136.733 7.12 136.853 6.96 136.853 6.8C136.893 6.76 136.853 6.64 136.813 6.6C136.773 6.56 136.693 6.56 136.613 6.56C136.493 6.6 136.413 6.72 136.373 6.84C136.333 6.88 136.333 6.88 136.333 6.88C136.333 6.88 136.293 6.84 136.253 6.8C136.253 6.72 136.213 6.6 136.173 6.52L136.093 6.4H136.133C136.253 6.28 136.373 6.08 136.373 6C136.373 5.92 136.333 5.8 136.293 5.76C136.253 5.72 136.173 5.72 136.133 5.72C136.053 5.76 135.973 5.88 135.973 6L135.933 6.08L135.853 6C135.813 5.92 135.813 5.92 135.813 5.88C135.893 5.68 135.653 5.48 135.493 5.56C135.413 5.6 135.333 5.72 135.373 5.8C135.413 5.96 135.533 6.04 135.653 6C135.693 6 135.693 6 135.773 6.08C135.813 6.16 135.973 6.4 135.973 6.44C135.973 6.44 135.933 6.4 135.893 6.4C135.693 6.28 135.573 6.24 135.453 6.28C135.413 6.32 135.373 6.36 135.413 6.44C135.413 6.52 135.453 6.6 135.533 6.68C135.613 6.72 135.613 6.72 135.733 6.76C135.853 6.76 135.893 6.76 135.973 6.76C136.053 6.76 136.093 6.72 136.093 6.76C136.173 6.88 136.293 7.2 136.293 7.24C136.293 7.24 136.253 7.2 136.213 7.2C136.133 7.12 136.053 7.08 135.933 7.04C135.853 7.04 135.853 7.04 135.813 7.08C135.693 7.16 135.693 7.24 135.773 7.4C135.853 7.52 136.013 7.64 136.253 7.68C136.333 7.68 136.373 7.68 136.373 7.72C136.373 7.72 136.453 8.12 136.493 8.4C136.493 8.52 136.493 8.68 136.493 8.8L136.533 9L136.373 9.32C136.293 9.48 136.173 9.72 136.133 9.88C136.053 10 136.013 10.12 136.013 10.12C136.013 10.12 136.013 10.08 136.013 10.04C135.973 9.92 135.933 9.56 135.933 9.48C135.933 9.44 135.933 9.44 136.013 9.4C136.133 9.36 136.213 9.24 136.293 9.12C136.373 8.88 136.213 8.72 136.013 8.84C135.973 8.88 135.853 9.04 135.853 9.08C135.853 9.08 135.813 9 135.773 8.92C135.733 8.84 135.693 8.72 135.693 8.68L135.653 8.6L135.693 8.48C135.813 8.32 135.853 8.16 135.813 8.04C135.773 8 135.773 8 135.733 8C135.613 7.96 135.533 8.08 135.493 8.24L135.453 8.32L135.413 8.24C135.373 8.2 135.373 8.16 135.373 8.12C135.373 8.04 135.373 8 135.333 7.96C135.293 7.88 135.173 7.88 135.053 7.92C135.013 7.96 135.013 7.96 135.013 8.04C135.013 8.08 135.013 8.12 135.013 8.16C135.053 8.24 135.133 8.28 135.213 8.28C135.293 8.28 135.293 8.28 135.333 8.32C135.373 8.4 135.493 8.6 135.493 8.64C135.493 8.64 135.453 8.6 135.413 8.56C135.333 8.52 135.213 8.48 135.133 8.52C135.053 8.52 135.013 8.64 135.093 8.72C135.133 8.88 135.333 8.96 135.573 8.92H135.653L135.693 9.12C135.733 9.32 135.773 9.52 135.773 9.56C135.773 9.56 135.773 9.52 135.733 9.48C135.613 9.32 135.373 9.24 135.293 9.36C135.253 9.4 135.253 9.44 135.253 9.52C135.333 9.68 135.453 9.8 135.733 9.84H135.853V9.96C135.853 10 135.853 10.08 135.853 10.08C135.853 10.12 135.853 10.2 135.853 10.28C135.853 10.36 135.853 10.44 135.893 10.48C135.893 10.52 135.853 10.56 135.813 10.68C135.693 11.04 135.653 11.2 135.573 11.72C135.493 12.12 135.453 12.24 135.493 12.24C135.493 12.28 135.533 12.28 135.573 12.28C135.573 12.24 135.613 12.12 135.653 11.96C135.693 11.64 135.733 11.56 135.813 11.44C135.893 11.32 136.053 11.12 136.133 11.04L136.173 10.96L136.293 11.04C136.373 11.08 136.413 11.12 136.573 11.12C136.733 11.16 136.733 11.16 136.813 11.16C136.933 11.12 136.973 11.08 137.013 11C137.013 10.92 137.013 10.84 136.933 10.8C136.853 10.76 136.653 10.72 136.533 10.72C136.493 10.72 136.453 10.72 136.453 10.72C136.493 10.68 136.693 10.52 136.773 10.48C136.933 10.36 136.933 10.4 136.973 10.44C137.053 10.56 137.213 10.64 137.373 10.68C137.493 10.72 137.613 10.68 137.653 10.6C137.693 10.56 137.693 10.52 137.693 10.48C137.653 10.4 137.533 10.32 137.333 10.24H137.253L137.453 10.16C137.533 10.12 137.613 10.08 137.613 10.08L137.653 10.12C137.813 10.28 138.133 10.08 138.053 9.88C138.013 9.8 137.973 9.76 137.853 9.76C137.773 9.72 137.773 9.72 137.733 9.76C137.653 9.8 137.613 9.84 137.573 9.92C137.573 9.96 137.573 9.96 137.493 10C137.453 10 137.453 10 137.453 10C137.453 9.96 137.493 9.92 137.493 9.88C137.533 9.76 137.533 9.68 137.493 9.6C137.453 9.56 137.453 9.56 137.413 9.56C137.253 9.52 137.133 9.68 137.093 9.96C137.093 10 137.093 10.08 137.093 10.08C137.133 10.16 137.093 10.16 137.013 10.2C136.933 10.24 136.853 10.28 136.773 10.32C136.693 10.36 136.653 10.4 136.653 10.4C136.653 10.4 136.653 10.36 136.693 10.32C136.773 10.2 136.813 10.04 136.813 9.96C136.773 9.88 136.733 9.84 136.693 9.8C136.613 9.8 136.493 9.88 136.413 9.96C136.333 10.08 136.293 10.32 136.293 10.56L136.333 10.64L136.213 10.76C136.133 10.84 136.013 10.92 135.893 11.12C135.813 11.2 135.813 11.2 135.813 11.16C135.853 11 136.093 10.28 136.253 9.92C136.493 9.4 136.733 8.88 136.853 8.68L136.893 8.6H136.933C137.053 8.64 137.333 8.6 137.613 8.52L137.733 8.48L137.813 8.6C137.933 8.76 138.133 8.92 138.293 8.92C138.373 8.92 138.453 8.92 138.493 8.88C138.533 8.84 138.533 8.76 138.493 8.68C138.493 8.6 138.333 8.48 138.173 8.4C138.133 8.4 138.093 8.36 138.093 8.36C138.093 8.36 138.133 8.32 138.213 8.32C138.253 8.28 138.373 8.24 138.413 8.2C138.493 8.16 138.573 8.16 138.573 8.16C138.653 8.24 138.693 8.24 138.733 8.24C138.893 8.2 138.973 8.16 138.973 8.04C138.973 7.92 138.893 7.84 138.813 7.8C138.693 7.8 138.613 7.84 138.533 7.96C138.533 8 138.533 8.04 138.413 8.08C138.373 8.08 138.333 8.12 138.333 8.08C138.333 8.08 138.333 8.08 138.333 8.04C138.533 7.84 138.493 7.56 138.293 7.64C138.133 7.68 137.973 7.88 137.933 8.16V8.28L137.773 8.32C137.693 8.36 137.573 8.4 137.493 8.44C137.293 8.48 136.973 8.52 136.973 8.48C136.933 8.48 136.973 8.44 137.173 8.2C137.413 7.8 137.693 7.48 138.053 7.16C138.133 7.08 138.173 7.08 138.173 7.08C138.333 7.2 138.413 7.24 138.573 7.24C138.693 7.28 138.733 7.28 138.813 7.28C138.973 7.28 139.053 7.2 139.093 7.08C139.093 6.96 139.013 6.88 138.813 6.84C138.693 6.8 138.653 6.8 138.573 6.8C138.533 6.8 138.493 6.8 138.493 6.8C138.493 6.8 138.653 6.68 138.853 6.56L139.213 6.28L139.333 6.32C139.373 6.32 139.413 6.32 139.493 6.28C139.573 6.24 139.653 6.16 139.653 6.08C139.653 6 139.653 5.96 139.573 5.88C139.493 5.8 139.333 5.8 139.213 5.92C139.173 5.96 139.173 6 139.173 6.04C139.133 6.12 139.133 6.16 139.133 6.16C139.133 6.2 139.093 6.2 139.013 6.28C138.933 6.32 138.853 6.36 138.853 6.36C138.853 6.36 138.853 6.32 138.893 6.28C138.933 6.16 138.973 5.96 138.933 5.88C138.893 5.68 138.693 5.68 138.573 5.84C138.533 5.92 138.533 5.92 138.493 6.04C138.493 6.16 138.493 6.2 138.493 6.36C138.533 6.44 138.533 6.52 138.533 6.56C138.533 6.6 138.533 6.6 138.453 6.68C138.093 6.92 137.653 7.32 137.293 7.8C137.213 7.88 137.173 7.96 137.133 7.92C137.133 7.92 137.133 7.84 137.173 7.72C137.173 7.48 137.213 7.08 137.293 6.84C137.333 6.68 137.453 6.44 137.453 6.4C137.493 6.36 137.493 6.36 137.573 6.36C137.733 6.32 137.973 6.24 138.053 6.16C138.133 6.08 138.173 6.08 138.173 6C138.173 5.92 138.173 5.92 138.133 5.88C138.133 5.84 138.093 5.84 138.053 5.8C137.973 5.8 137.853 5.84 137.773 5.88C137.733 5.88 137.733 5.88 137.733 5.88C137.733 5.88 137.733 5.8 137.773 5.76C137.853 5.64 137.853 5.64 137.893 5.64C137.973 5.64 138.093 5.52 138.093 5.44C138.093 5.4 138.053 5.28 138.013 5.24C138.013 5.24 137.973 5.24 137.933 5.2C137.893 5.2 137.893 5.2 137.853 5.2ZM144.613 21.04C144.373 21.04 144.213 21.24 144.133 21.6C144.053 22 144.173 22.4 144.453 22.84C144.533 22.96 144.533 22.96 144.533 23C144.413 23.48 144.333 23.84 144.373 24.24C144.373 24.44 144.413 24.76 144.453 24.96C144.453 25.04 144.453 25.12 144.493 25.12C144.493 25.16 144.453 25.2 144.253 25.6C144.133 25.84 143.973 26.12 143.853 26.32C143.733 26.52 143.653 26.64 143.653 26.64C143.653 26.68 143.613 26.52 143.573 26.32C143.413 25.76 143.413 25.36 143.453 24.84L143.493 24.64L143.573 24.48C143.693 24.28 143.773 24.12 143.813 23.88C143.933 23.32 143.813 22.88 143.493 22.72C143.413 22.64 143.373 22.64 143.253 22.64C143.173 22.64 143.093 22.68 143.053 22.72C142.973 22.8 142.893 22.96 142.853 23.12C142.773 23.6 142.933 24.04 143.333 24.52C143.333 24.56 143.373 24.6 143.373 24.6C143.373 24.6 143.373 24.68 143.333 24.8C143.293 25.36 143.293 25.72 143.413 26.32C143.453 26.44 143.493 26.6 143.533 26.68L143.573 26.8L143.493 26.88C143.453 26.96 143.293 27.2 143.093 27.48C142.893 27.76 142.693 28.04 142.653 28.12L142.533 28.28L142.573 28.32C142.573 28.32 142.573 28.36 142.613 28.36C142.653 28.36 142.653 28.32 142.693 28.24C142.813 28.12 143.453 27.2 143.533 27.04L143.653 26.88L143.813 26.8C144.613 26.6 145.013 26.4 145.533 25.96L145.613 25.88L145.733 25.92C146.093 25.96 146.333 25.92 146.573 25.88C146.853 25.8 147.093 25.64 147.253 25.4C147.373 25.24 147.413 25.08 147.293 24.92C147.253 24.84 147.093 24.76 146.973 24.76C146.733 24.68 146.493 24.76 146.213 24.96C146.053 25.08 145.933 25.2 145.813 25.32C145.733 25.4 145.693 25.44 145.613 25.6L145.493 25.8L145.373 25.92C145.053 26.16 144.773 26.36 144.453 26.48C144.293 26.52 143.893 26.68 143.813 26.72H143.773L144.053 26.24C144.173 26 144.373 25.64 144.453 25.52C144.573 25.24 144.573 25.24 144.613 25.2C144.653 25.2 144.693 25.2 144.733 25.16C144.853 25.12 145.173 24.96 145.253 24.96C145.253 24.92 145.333 24.88 145.413 24.84C145.733 24.68 146.053 24.44 146.373 24.12L146.453 24H146.573C147.093 24.04 147.493 23.92 147.773 23.64C148.053 23.4 148.173 23.16 148.093 22.96C148.053 22.88 148.013 22.84 147.893 22.8C147.613 22.64 147.253 22.72 146.893 23.08C146.773 23.2 146.733 23.24 146.653 23.36C146.533 23.48 146.453 23.68 146.373 23.8L146.333 23.92L146.173 24.12C145.813 24.48 145.493 24.68 144.973 24.96C144.853 25 144.733 25.04 144.693 25.04V25.08L144.733 25C144.733 24.92 144.773 24.84 144.813 24.76C145.013 24.36 145.253 23.84 145.453 23.44L145.493 23.28L145.613 23.24C145.893 23.08 146.133 22.92 146.253 22.72C146.533 22.4 146.653 21.88 146.493 21.64C146.413 21.56 146.333 21.52 146.213 21.52C146.013 21.48 145.813 21.6 145.693 21.76C145.613 21.88 145.493 22.08 145.413 22.24C145.333 22.56 145.293 22.92 145.373 23.16C145.373 23.2 145.373 23.28 145.373 23.28C145.373 23.36 144.653 24.88 144.573 24.96C144.573 24.96 144.573 24.96 144.533 24.84C144.453 24.24 144.493 23.8 144.573 23.32C144.653 23 144.653 23 144.693 22.92C144.933 22.72 145.093 22.2 145.133 21.84C145.133 21.44 144.973 21.12 144.693 21.04C144.653 21.04 144.653 21.04 144.613 21.04ZM157.756 9.52C157.756 10.0267 157.729 10.5467 157.676 11.08C157.649 11.6133 157.609 12.0933 157.556 12.52H157.796C158.249 11.7733 158.823 11.16 159.516 10.68C160.209 10.2 160.983 9.84 161.836 9.6C162.689 9.33333 163.569 9.2 164.476 9.2C166.209 9.2 167.649 9.48 168.796 10.04C169.969 10.5733 170.849 11.4133 171.436 12.56C172.023 13.7067 172.316 15.2 172.316 17.04V31H168.836V17.28C168.836 15.5467 168.449 14.2533 167.676 13.4C166.903 12.5467 165.689 12.12 164.036 12.12C162.436 12.12 161.183 12.4267 160.276 13.04C159.369 13.6267 158.716 14.5067 158.316 15.68C157.943 16.8267 157.756 18.24 157.756 19.92V31H154.236V0.599998H157.756V9.52ZM187.083 9.2C189.696 9.2 191.629 9.77333 192.883 10.92C194.136 12.0667 194.763 13.8933 194.763 16.4V31H192.203L191.523 27.96H191.363C190.749 28.7333 190.109 29.3867 189.443 29.92C188.803 30.4267 188.056 30.8 187.203 31.04C186.376 31.28 185.363 31.4 184.163 31.4C182.883 31.4 181.723 31.1733 180.683 30.72C179.669 30.2667 178.869 29.5733 178.283 28.64C177.696 27.68 177.403 26.48 177.403 25.04C177.403 22.9067 178.243 21.2667 179.923 20.12C181.603 18.9467 184.189 18.3067 187.683 18.2L191.323 18.08V16.8C191.323 15.0133 190.936 13.7733 190.163 13.08C189.389 12.3867 188.296 12.04 186.883 12.04C185.763 12.04 184.696 12.2133 183.683 12.56C182.669 12.88 181.723 13.2533 180.842 13.68L179.763 11.04C180.696 10.5333 181.803 10.1067 183.083 9.76C184.363 9.38667 185.696 9.2 187.083 9.2ZM188.123 20.64C185.456 20.7467 183.603 21.1733 182.563 21.92C181.549 22.6667 181.043 23.72 181.043 25.08C181.043 26.28 181.403 27.16 182.123 27.72C182.869 28.28 183.816 28.56 184.963 28.56C186.776 28.56 188.283 28.0667 189.483 27.08C190.683 26.0667 191.283 24.52 191.283 22.44V20.52L188.123 20.64ZM209.984 31.4C208.091 31.4 206.398 31.0133 204.904 30.24C203.438 29.4667 202.278 28.2667 201.424 26.64C200.598 25.0133 200.184 22.9333 200.184 20.4C200.184 17.76 200.624 15.6133 201.504 13.96C202.384 12.3067 203.571 11.0933 205.064 10.32C206.584 9.54667 208.304 9.16 210.224 9.16C211.318 9.16 212.371 9.28 213.384 9.52C214.398 9.73333 215.224 10 215.864 10.32L214.784 13.24C214.144 13 213.398 12.7733 212.544 12.56C211.691 12.3467 210.891 12.24 210.144 12.24C208.704 12.24 207.518 12.5467 206.584 13.16C205.651 13.7733 204.958 14.68 204.504 15.88C204.051 17.08 203.824 18.5733 203.824 20.36C203.824 22.0667 204.051 23.52 204.504 24.72C204.958 25.92 205.638 26.8267 206.544 27.44C207.451 28.0533 208.584 28.36 209.944 28.36C211.118 28.36 212.144 28.24 213.024 28C213.931 27.76 214.758 27.4667 215.504 27.12V30.24C214.784 30.6133 213.984 30.8933 213.104 31.08C212.251 31.2933 211.211 31.4 209.984 31.4ZM224.083 16.48C224.083 16.9067 224.056 17.4667 224.003 18.16C223.976 18.8533 223.95 19.4533 223.923 19.96H224.083C224.243 19.7467 224.483 19.44 224.803 19.04C225.123 18.64 225.443 18.24 225.763 17.84C226.11 17.4133 226.403 17.0667 226.643 16.8L233.483 9.56H237.603L228.923 18.72L238.203 31H233.963L226.523 21L224.083 23.12V31H220.603V0.599998H224.083V16.48Z" fill="#383838"/>
</svg>
