<svg width="64" height="64" viewBox="0 0 64 64" fill="none" xmlns="http://www.w3.org/2000/svg">
<path d="M13.175 22.825C14.7375 24.3863 17.27 24.3875 18.8312 22.8251L28 13.6625V44C28 46.2088 29.7913 48 32 48C34.2088 48 36 46.2088 36 44V13.6625L45.1725 22.835C46.7337 24.3962 49.2663 24.3962 50.8288 22.8349C52.39 21.2736 52.39 18.7411 50.8288 17.1786L34.8288 1.17862C34.05 0.390625 33.025 0 32 0C30.975 0 29.95 0.390625 29.175 1.17188L13.175 17.175C11.61 18.7375 11.61 21.2625 13.175 22.825ZM60 44H40C40 48.4188 36.4188 52 32 52C27.5812 52 24 48.4188 24 44H4C1.79125 44 0 45.7912 0 48V60C0 62.2088 1.79125 64 4 64H60C62.2088 64 64 62.2088 64 60V48C64 45.7875 62.2125 44 60 44ZM54 57C52.35 57 51 55.65 51 54C51 52.35 52.35 51 54 51C55.65 51 57 52.35 57 54C57 55.65 55.65 57 54 57Z" fill="#606060"/>
</svg>
